<svg xmlns="http://www.w3.org/2000/svg" fill="none" viewBox="0 0 135 62"><path fill="#fff" d="M40.135 20.17H33.534v-6.685c0-7.463-6.231-13.526-13.836-13.008-6.707.466-12.04 6.012-12.04 12.697v6.996H1.055A1.05 1.05 0 000 21.207v7.774C0 39.76 8.66 48.62 19.54 49.14v9.328h-7.922c-.74 0-1.32.57-1.32 1.296 0 .725.58 1.295 1.32 1.295h17.956c.739 0 1.32-.57 1.32-1.295 0-.726-.581-1.296-1.32-1.296H22.18V49.14c10.615-.83 19.012-9.536 19.012-20.16V21.207a1.05 1.05 0 00-1.057-1.037zM19.54 46.55c-9.4-.519-16.9-8.188-16.9-17.569v-6.219h4.965v6.997c0 6.633 5.228 12.127 11.882 12.645v4.146h.053zm1.425-6.686c-5.861.208-10.667-4.405-10.667-10.105V13.174c0-5.7 4.806-10.313 10.667-10.106 4.278.156 7.816 2.954 9.242 6.737h-8.819c-.74 0-1.32.57-1.32 1.296 0 .725.58 1.295 1.32 1.295h9.453c.053.363.053.674.053 1.037v3.11h-9.506c-.74 0-1.32.57-1.32 1.295 0 .726.58 1.296 1.32 1.296h9.506V22.76h-9.506c-.74 0-1.32.57-1.32 1.296 0 .726.58 1.296 1.32 1.296h9.506v4.145h-9.506c-.74 0-1.32.57-1.32 1.296 0 .726.58 1.296 1.32 1.296h9.136c-1.109 4.301-4.858 7.618-9.559 7.773zM38.551 28.98c0 9.173-7.182 16.74-16.37 17.569v-4.146c6.39-.83 11.353-6.167 11.353-12.645V22.76h5.017v6.22z"/><path fill="#D31313" stroke="#fff" stroke-width="2" d="M133.983 7.73c0 2.406-1.993 4.39-4.492 4.39-2.498 0-4.491-1.983-4.491-4.39 0-2.406 1.993-4.389 4.491-4.389 2.499 0 4.492 1.983 4.492 4.39z"/><path fill="#fff" d="M60.461 14.907v11.505h-2.323v-9.328h-4.12v9.328h-2.323V14.907h8.766zM72.713 26.412v-6.996l-5.017 6.996h-1.742V14.907h2.323v7.048l5.017-6.996h1.743v11.505h-2.324v-.052zM79.631 26.412v-2.125c.687.104 1.215-.051 1.532-.414.37-.363.528-1.088.528-2.177v-6.789h7.974v11.505h-2.27v-9.328h-3.38v4.56c0 .985-.106 1.814-.37 2.488-.264.674-.581 1.192-1.004 1.503-.422.31-.897.57-1.373.673-.475.104-1.056.156-1.637.104zM105.033 24.91c-1.162 1.14-2.641 1.71-4.331 1.71-1.69 0-3.115-.57-4.33-1.71-1.162-1.14-1.743-2.592-1.743-4.25 0-1.659.581-3.11 1.743-4.25 1.162-1.14 2.588-1.71 4.33-1.71 1.69 0 3.116.57 4.331 1.71 1.162 1.14 1.795 2.591 1.795 4.25 0 1.658-.633 3.11-1.795 4.25zm-7.024-1.555c.74.725 1.637 1.036 2.693 1.036a3.879 3.879 0 002.694-1.036c.739-.726 1.109-1.607 1.109-2.695 0-1.089-.37-2.021-1.109-2.695-.74-.726-1.637-1.088-2.694-1.088-1.056 0-1.953.362-2.693 1.088-.74.725-1.109 1.606-1.109 2.695.053 1.088.423 1.97 1.11 2.695zM118.869 14.907v2.177H115.7v9.328h-2.323v-9.328h-3.169v-2.177h8.661zM62.31 32.476V43.98h-2.271v-7.463l-3.274 5.338H56.5l-3.274-5.338v7.41h-2.324V32.477h2.376l3.38 5.441 3.327-5.441h2.324zM70.178 41.804h4.912v2.177h-7.235V32.476h7.13v2.176h-4.86v2.436h4.437v2.125h-4.436v2.59h.052zM89.031 41.804H90.3v4.353h-2.324v-2.176h-6.442v2.176h-2.324v-4.353h1.162c.633-.881.95-2.177.95-3.887v-5.441h7.71v9.328zm-6.178 0h3.908V34.6h-3.116v3.369c0 1.606-.264 2.902-.792 3.835zM101.97 43.929v-6.997l-5.017 6.997H95.21V32.476h2.324v6.996l5.017-6.996h1.743V43.98h-2.324v-.052zM117.285 43.929l-.687-2.073h-4.647l-.687 2.073h-2.482l4.12-11.505h2.851l4.119 11.505h-2.587zm-4.595-4.146h3.222l-1.585-4.716-1.637 4.716z"/></svg>