<svg width="228" height="228" viewBox="0 0 228 228" fill="none" xmlns="http://www.w3.org/2000/svg">
<circle cx="114" cy="114" r="113.5" stroke="#8BA3C3" stroke-dasharray="5 5"/>
<circle cx="114" cy="114" r="83.1" stroke="#8BA3C3" stroke-dasharray="5 5"/>
<path d="M151.868 56.8377C151.168 56.4382 150.307 56.4449 149.613 56.8552L108.483 81.1767C107.416 81.8076 107.063 83.1839 107.694 84.2509C108.324 85.3176 109.701 85.6711 110.768 85.0405L140.278 67.5903L85.3107 124.624L57.9718 116.26L93.6503 95.1623C94.7173 94.5312 95.0708 93.1549 94.4399 92.0879C93.8092 91.0212 92.4327 90.6672 91.3657 91.2984L51.3075 114.986C50.5421 115.438 50.1159 116.3 50.2212 117.183C50.3264 118.066 50.943 118.804 51.7931 119.064L84.4425 129.053L98.8466 155.27C98.8616 155.298 98.8771 155.321 98.893 155.341C99.1334 155.742 99.4936 156.069 99.943 156.258C100.224 156.377 100.52 156.434 100.813 156.434C101.389 156.434 101.955 156.213 102.382 155.795L118.945 139.608L150.099 149.139C150.314 149.205 150.535 149.237 150.755 149.237C151.23 149.237 151.699 149.087 152.09 148.797C152.662 148.374 153 147.705 153 146.993V58.7872C153 57.9812 152.568 57.237 151.868 56.8377ZM98.9689 130.436C98.709 130.811 98.5696 131.257 98.5696 131.714V145.443L88.7339 127.541L132.258 82.3806L98.9689 130.436ZM103.058 148.858V134.748L114.054 138.112L103.058 148.858ZM148.511 143.959L104.408 130.467L148.511 66.8007V143.959Z" fill="url(#paint0_linear)"/>
<path d="M74.989 134.554C74.1124 133.677 72.6916 133.677 71.8147 134.554L50.8626 155.506C49.9861 156.382 49.9861 157.804 50.8626 158.68C51.3012 159.118 51.8755 159.337 52.4499 159.337C53.0242 159.337 53.5985 159.118 54.0369 158.68L74.989 137.728C75.8655 136.852 75.8655 135.43 74.989 134.554Z" fill="url(#paint1_linear)"/>
<path d="M47.0792 162.463C46.2025 161.587 44.7818 161.587 43.9051 162.464L38.743 167.626C37.8665 168.502 37.8665 169.923 38.743 170.8C39.1813 171.238 39.7557 171.457 40.33 171.457C40.9043 171.457 41.4787 171.238 41.917 170.8L47.0792 165.638C47.9556 164.761 47.9556 163.34 47.0792 162.463Z" fill="url(#paint2_linear)"/>
<path d="M70.1021 167.494C69.6848 167.076 69.1058 166.836 68.5155 166.836C67.9227 166.836 67.3461 167.076 66.9287 167.494C66.5112 167.911 66.2711 168.488 66.2711 169.08C66.2711 169.671 66.511 170.25 66.9287 170.667C67.3461 171.085 67.9252 171.325 68.5155 171.325C69.1058 171.325 69.6848 171.085 70.1021 170.667C70.5195 170.25 70.7599 169.671 70.7599 169.08C70.7599 168.488 70.5197 167.911 70.1021 167.494Z" fill="url(#paint3_linear)"/>
<path d="M86.801 150.794C85.925 149.918 84.5043 149.918 83.6269 150.794L72.5292 161.892C71.6527 162.768 71.6527 164.189 72.5292 165.066C72.9675 165.504 73.5418 165.723 74.1162 165.723C74.6905 165.723 75.2649 165.504 75.7032 165.066L86.801 153.968C87.6774 153.092 87.6774 151.671 86.801 150.794Z" fill="url(#paint4_linear)"/>
<path d="M125.103 149.942C124.226 149.066 122.805 149.066 121.929 149.942L110.801 161.07C109.924 161.946 109.924 163.368 110.801 164.244C111.239 164.682 111.813 164.902 112.388 164.902C112.962 164.902 113.536 164.682 113.975 164.244L125.103 153.116C125.979 152.24 125.979 150.819 125.103 149.942Z" fill="url(#paint5_linear)"/>
<path d="M101.715 87.1366C101.297 86.7192 100.718 86.479 100.128 86.479C99.5379 86.479 98.9588 86.7192 98.5413 87.1366C98.1241 87.5541 97.8837 88.1331 97.8837 88.7257C97.8837 89.316 98.1239 89.8928 98.5413 90.3102C98.9588 90.7299 99.5379 90.9678 100.128 90.9678C100.718 90.9678 101.297 90.7299 101.715 90.3102C102.132 89.8928 102.373 89.316 102.373 88.7257C102.373 88.1331 102.132 87.5541 101.715 87.1366Z" fill="url(#paint6_linear)"/>
<defs>
<linearGradient id="paint0_linear" x1="77.0012" y1="70.5322" x2="148.353" y2="181.16" gradientUnits="userSpaceOnUse">
<stop stop-color="#FF648D"/>
<stop offset="0.2947" stop-color="#C5479C"/>
<stop offset="0.6252" stop-color="#8B29AA"/>
<stop offset="0.87" stop-color="#6716B4"/>
<stop offset="1" stop-color="#590FB7"/>
</linearGradient>
<linearGradient id="paint1_linear" x1="56.8371" y1="137.459" x2="75.219" y2="165.155" gradientUnits="userSpaceOnUse">
<stop stop-color="#FF648D"/>
<stop offset="0.2947" stop-color="#C5479C"/>
<stop offset="0.6252" stop-color="#8B29AA"/>
<stop offset="0.87" stop-color="#6716B4"/>
<stop offset="1" stop-color="#590FB7"/>
</linearGradient>
<linearGradient id="paint2_linear" x1="40.6014" y1="163.158" x2="47.5744" y2="173.664" gradientUnits="userSpaceOnUse">
<stop stop-color="#FF648D"/>
<stop offset="0.2947" stop-color="#C5479C"/>
<stop offset="0.6252" stop-color="#8B29AA"/>
<stop offset="0.87" stop-color="#6716B4"/>
<stop offset="1" stop-color="#590FB7"/>
</linearGradient>
<linearGradient id="paint3_linear" x1="67.4412" y1="167.465" x2="70.6845" y2="172.351" gradientUnits="userSpaceOnUse">
<stop stop-color="#FF648D"/>
<stop offset="0.2947" stop-color="#C5479C"/>
<stop offset="0.6252" stop-color="#8B29AA"/>
<stop offset="0.87" stop-color="#6716B4"/>
<stop offset="1" stop-color="#590FB7"/>
</linearGradient>
<linearGradient id="paint4_linear" x1="75.9348" y1="152.32" x2="87.1964" y2="169.287" gradientUnits="userSpaceOnUse">
<stop stop-color="#FF648D"/>
<stop offset="0.2947" stop-color="#C5479C"/>
<stop offset="0.6252" stop-color="#8B29AA"/>
<stop offset="0.87" stop-color="#6716B4"/>
<stop offset="1" stop-color="#590FB7"/>
</linearGradient>
<linearGradient id="paint5_linear" x1="114.214" y1="151.472" x2="125.498" y2="168.473" gradientUnits="userSpaceOnUse">
<stop stop-color="#FF648D"/>
<stop offset="0.2947" stop-color="#C5479C"/>
<stop offset="0.6252" stop-color="#8B29AA"/>
<stop offset="0.87" stop-color="#6716B4"/>
<stop offset="1" stop-color="#590FB7"/>
</linearGradient>
<linearGradient id="paint6_linear" x1="99.0539" y1="87.1077" x2="102.297" y2="91.9943" gradientUnits="userSpaceOnUse">
<stop stop-color="#FF648D"/>
<stop offset="0.2947" stop-color="#C5479C"/>
<stop offset="0.6252" stop-color="#8B29AA"/>
<stop offset="0.87" stop-color="#6716B4"/>
<stop offset="1" stop-color="#590FB7"/>
</linearGradient>
</defs>
</svg>
